<svg width="21" height="21" viewBox="0 0 21 21" fill="currentColor" xmlns="http://www.w3.org/2000/svg">
<path d="M3.21347 0.502174C2.69085 -0.0210901 1.84353 -0.0210901 1.32092 0.502174C0.798302 1.02544 0.798302 1.87382 1.32092 2.39708L9.04887 10.1347L1.321 17.8722C0.798382 18.3954 0.798381 19.2438 1.321 19.7671C1.84361 20.2903 2.69093 20.2903 3.21355 19.7671L10.9414 12.0296L18.6693 19.7671C19.1919 20.2903 20.0392 20.2903 20.5619 19.7671C21.0845 19.2438 21.0845 18.3954 20.5619 17.8722L12.834 10.1347L20.5619 2.39708C21.0845 1.87382 21.0845 1.02544 20.5619 0.502174C20.0393 -0.0210901 19.192 -0.0210901 18.6694 0.502174L10.9414 8.23976L3.21347 0.502174Z" />
</svg>
